<svg width="26" height="30" viewBox="0 0 26 30" fill="none" xmlns="http://www.w3.org/2000/svg">
<path fill-rule="evenodd" clip-rule="evenodd" d="M6.07317 6.53783C5.81823 6.07544 5.58418 5.61175 5.37052 5.14057C5.04977 4.43391 4.8178 3.68863 4.53327 2.96878C4.41232 2.66347 4.08544 1.87172 4.05711 1.75103C3.81519 0.697534 4.51243 0.269077 4.72276 0.161333C4.82335 0.106007 5.86987 -0.424541 6.58319 0.800469C7.45632 2.29792 8.13658 3.87803 8.60944 5.49622C9.33785 6.75317 10.2341 7.94275 11.2153 8.95796C15.119 12.9954 19.3853 11.9728 23.807 10.3135C24.4854 10.0541 25.2627 10.4262 25.565 11.1458C25.8694 11.8709 25.5939 12.6948 24.9385 13.0082C22.5523 14.1699 18.9332 17.92 18.2256 20.7101C18.0777 21.2942 18.3036 22.4908 18.4617 23.687C18.6793 25.3482 18.8261 27.0165 18.6032 27.8212C18.5709 27.9452 18.1089 29.2612 17.9151 29.5002C17.4477 30.0695 16.8966 30.0393 16.5576 29.9506C16.2185 29.8619 15.7777 29.6044 15.4327 29.0375C15.0721 28.4452 14.7031 27.0948 14.5809 26.8211C14.1376 25.8285 13.2212 23.8977 12.2105 22.3193C11.6661 21.4694 11.134 20.6962 10.6134 20.4054C8.68622 19.329 6.60261 20.3494 4.87127 21.2727C4.67165 21.3766 4.47405 21.486 4.27495 21.5896C3.61797 22.097 2.89301 22.5604 2.09713 22.9686C0.89589 23.5867 0.233712 22.4117 0.192418 22.3332C0.102794 22.1599 -0.325253 21.2553 0.487669 20.5352C0.57718 20.459 1.27512 19.9991 1.54337 19.8204C1.91738 19.572 2.30401 19.3439 2.69417 19.1208C6.46833 16.1128 7.32788 11.2088 6.07317 6.53783Z" fill="#F8C686"/>
</svg>
