<svg width="26" height="30" viewBox="0 0 26 30" fill="none" xmlns="http://www.w3.org/2000/svg">
<path fill-rule="evenodd" clip-rule="evenodd" d="M6.32823 6.50173C6.08453 6.03781 5.86159 5.57302 5.65903 5.10122C5.35494 4.3936 5.1397 3.64945 4.87181 2.92947C4.75792 2.62411 4.44944 1.83194 4.42375 1.71162C4.20483 0.661436 4.90525 0.250277 5.11611 0.147585C5.21703 0.0947042 6.26608 -0.410753 6.94931 0.819061C7.78566 2.32241 8.42896 3.90391 8.86572 5.51903C9.56328 6.78084 10.4287 7.97917 11.382 9.00618C15.1745 13.0905 19.4283 12.1614 23.8489 10.6037C24.5273 10.3599 25.291 10.7446 25.5766 11.4647C25.8641 12.1903 25.5742 13.0023 24.9177 13.3001C22.5266 14.405 18.8604 18.0534 18.1024 20.8078C17.9439 21.3843 18.144 22.5762 18.277 23.7664C18.4596 25.419 18.5718 27.0773 18.3345 27.8713C18.3 27.9937 17.8152 29.2902 17.6181 29.5235C17.1428 30.079 16.5966 30.038 16.262 29.9432C15.9274 29.8484 15.4951 29.584 15.1642 29.0147C14.8183 28.4197 14.4792 27.0724 14.3635 26.7984C13.9435 25.8045 13.0728 23.8703 12.1017 22.2839C11.5785 21.4297 11.066 20.6518 10.5553 20.3528C8.66461 19.2461 6.57669 20.2169 4.84027 21.0983C4.64012 21.1974 4.44185 21.3019 4.24221 21.4008C3.58016 21.891 2.85153 22.3364 2.05363 22.7254C0.849312 23.3147 0.215822 22.1355 0.176422 22.0567C0.0909656 21.8831 -0.315629 20.9769 0.505426 20.2787C0.595772 20.2048 1.29752 19.7625 1.56727 19.5905C1.94337 19.3515 2.33157 19.133 2.72317 18.9195C6.52838 16.0104 7.47958 11.1616 6.32823 6.50173Z" fill="#E4DFB7"/>
</svg>
