<svg width="35" height="40" viewBox="0 0 35 40" fill="none" xmlns="http://www.w3.org/2000/svg">
<path fill-rule="evenodd" clip-rule="evenodd" d="M13.5514 8.00761C13.4506 7.36152 13.3746 6.72275 13.3256 6.08392C13.2516 5.12567 13.2973 4.16009 13.2711 3.20184C13.2597 2.79531 13.2146 1.73544 13.2328 1.58299C13.3975 0.254506 14.3904 0.0512157 14.6808 0.0149183C14.8213 -0.00686015 16.2639 -0.18101 16.5752 1.54675C16.957 3.65925 17.0793 5.78625 16.9442 7.86972C17.2595 9.64103 17.7987 11.405 18.5106 13.0021C21.3434 19.3542 26.7415 19.9712 32.59 19.9132C33.4894 19.8986 34.2363 20.6609 34.2834 21.6264C34.3304 22.5992 33.6609 23.4413 32.7655 23.5284C29.4963 23.8696 23.6962 26.7008 21.6909 29.6482C21.2714 30.2652 21.0274 31.7534 20.7047 33.2126C20.2543 35.238 19.7186 37.2416 19.1183 38.0837C19.0282 38.2143 17.9331 39.5501 17.6064 39.7461C16.8212 40.2107 16.1927 39.9421 15.8357 39.6952C15.4788 39.4484 15.0747 38.962 14.9134 38.1562C14.7447 37.3141 14.8872 35.5863 14.861 35.2161C14.7655 33.8731 14.5168 31.2379 14.0092 28.973C13.7356 27.7534 13.4439 26.6282 12.9612 26.0692C11.1744 24.0002 8.31736 24.3052 5.91141 24.6464C5.63512 24.6827 5.35883 24.7262 5.08321 24.7625C4.10375 25.0747 3.06377 25.307 1.96465 25.4449C0.30489 25.6554 0.0319782 24.0075 0.0171888 23.8986C-0.0137343 23.6591 -0.1287 22.425 1.12234 21.9313C1.25881 21.8805 2.26584 21.6409 2.65372 21.5466C3.1942 21.4159 3.74072 21.3143 4.28927 21.2199C9.9556 19.3179 13.0331 13.9749 13.5514 8.00761Z" fill="#181818"/>
</svg>
