<svg width="25" height="29" viewBox="0 0 25 29" fill="none" xmlns="http://www.w3.org/2000/svg">
<path fill-rule="evenodd" clip-rule="evenodd" d="M4.62131 6.50318C4.31963 6.064 4.03881 5.62144 3.77772 5.16936C3.38584 4.49136 3.07929 3.76582 2.72248 3.07101C2.57088 2.77635 2.16444 2.0135 2.12407 1.8951C1.77711 0.861018 2.435 0.361901 2.63559 0.232934C2.73114 0.167441 3.72973 -0.468687 4.56702 0.691096C5.59171 2.1087 6.43086 3.62836 7.0655 5.20673C7.92111 6.39709 8.93862 7.50323 10.0243 8.42587C14.3432 12.095 18.5266 10.6468 22.8032 8.54399C23.4589 8.21648 24.2762 8.51342 24.6509 9.20622C25.0281 9.90436 24.8328 10.7589 24.2056 11.1384C21.9239 12.5406 18.6597 16.6639 18.2246 19.5358C18.1338 20.1369 18.4787 21.3163 18.7557 22.502C19.1382 24.1488 19.4503 25.8096 19.3059 26.6398C19.2858 26.7675 18.9517 28.1347 18.7807 28.3938C18.3675 29.0117 17.811 29.0358 17.4618 28.9802C17.1126 28.9246 16.6444 28.7095 16.2421 28.1743C15.8214 27.615 15.3175 26.2954 15.1678 26.0326C14.6246 25.0795 13.5136 23.231 12.3429 21.7457C11.7123 20.946 11.1015 20.222 10.55 19.9813C8.50837 19.0907 6.51665 20.3211 4.86913 21.4193C4.67892 21.5433 4.49128 21.6726 4.30156 21.7964C3.69189 22.3708 3.00961 22.9078 2.25065 23.3963C1.10534 24.1356 0.324339 23.021 0.275114 22.9462C0.168006 22.7811 -0.351176 21.9149 0.394103 21.1115C0.476467 21.0261 1.13196 20.4953 1.3837 20.2894C1.73478 20.003 2.10053 19.7358 2.47032 19.4732C5.96351 16.0798 6.34252 11.0701 4.62131 6.50318Z" fill="#81DEE5"/>
</svg>
