<svg width="26" height="31" viewBox="0 0 26 31" fill="none" xmlns="http://www.w3.org/2000/svg">
<path fill-rule="evenodd" clip-rule="evenodd" d="M15.152 5.5451C15.2888 5.03901 15.4415 4.54641 15.6139 4.06252C15.8722 3.33658 16.2205 2.6443 16.5138 1.93392C16.638 1.63245 16.9506 0.841509 17.0136 0.735774C17.5675 -0.183508 18.3609 -0.00862783 18.5855 0.0594866C18.6955 0.0893506 19.8089 0.432225 19.4734 1.79913C19.0642 3.47086 18.4602 5.06858 17.6819 6.55046C17.3352 7.95058 17.1548 9.41837 17.1555 10.8202C17.1589 16.3962 20.9113 18.6084 25.2137 20.473C25.8772 20.7557 26.1756 21.5575 25.8953 22.28C25.6125 23.0078 24.8476 23.4062 24.1633 23.178C21.6578 22.3619 16.4865 22.5442 14.0567 24.0489C13.5483 24.3641 12.8843 25.3745 12.1721 26.3379C11.1818 27.6745 10.136 28.9672 9.42177 29.3882C9.31318 29.4545 8.07555 30.0758 7.77235 30.1128C7.04578 30.197 6.67305 29.7953 6.49209 29.4981C6.31114 29.201 6.17384 28.713 6.31843 28.0702C6.46945 27.3984 7.13724 26.1795 7.23877 25.8997C7.60679 24.885 8.28393 22.8739 8.65078 21.0495C8.84808 20.0671 9.00131 19.1478 8.83008 18.581C8.19606 16.483 6.00413 15.7747 4.13074 15.2401C3.91655 15.1766 3.69998 15.1184 3.48628 15.0551C2.66713 14.9643 1.82971 14.7953 0.979734 14.5379C-0.304535 14.1509 0.0329444 12.855 0.0576212 12.7704C0.113091 12.5849 0.431309 11.6435 1.50855 11.6899C1.62507 11.6972 2.44074 11.8501 2.75561 11.9075C3.19407 11.988 3.62747 12.0918 4.06001 12.2016C8.83026 12.6563 12.8266 9.74656 15.152 5.5451Z" fill="#C9D2FF"/>
</svg>
